# xmcd CD database file generated by Grip 3.3.1
# 
# Track frame offsets:
#       150
#       13777
#       26637
#       38263
#       51859
#       63992
#       77987
#       92126
#       105413
#       117597
#       130408
#       142185
#       151220
#       158776
#       169384
#       180467
#       192332
#       202097
#       210831
#       223290
#       232051
#       243404
#       253868
#       265097
#       278980
#       291475
#       301509
#       312671
# 
# Disc length: 4326 seconds
# 
# Revision: 1
# Processed by: cddbd v1.5.2PL0 Copyright (c) Steve Scherf et al.
# Submitted via: Grip 3.3.1
# 
DISCID=a410e41c
DTITLE=Ernest Tubb - Texas Troubadour - The Early years [CDD) 1944-19
DTITLE=45
DYEAR=2008
DGENRE=Country
TTITLE0=Wonder Why You Said Goodbye
TTITLE1=I'm Glad I Met You After All
TTITLE2=That's All She Wrote
TTITLE3=I Ain't Gonna Love You Anymore
TTITLE4=I Don't Want You After All
TTITLE5=Just Crying To Myself
TTITLE6=Try Me One More Time
TTITLE7=I've Lived A Lie
TTITLE8=Wondering If You're Wondering Too
TTITLE9=When Love Turns To Hate
TTITLE10=There's A New Moon Over My Shoulder
TTITLE11=Daisy May
TTITLE12=I Hung My Head And Cried
TTITLE13=There's Nothin' On My Mind
TTITLE14=Too Late To Worry, Too Blue To Cry
TTITLE15=Love Gone Cold
TTITLE16=You Brought Sorrow To My Heart
TTITLE17=Home In San Antone
TTITLE18=Darling What More Can I Do?
TTITLE19=Blue Bonnet Lane
TTITLE20=I Believe I'm Entitled To You
TTITLE21=You're Going To Be Sorry
TTITLE22=My Confession
TTITLE23=That's Why I'm Crying Over You
TTITLE24=Gone And Left Me Blues
TTITLE25=When The Tumbleweeds Come Tumbling Down Again
TTITLE26=I'll Be True While You're Gone
TTITLE27=The End Of the World 
EXTD=
EXTT0=
EXTT1=
EXTT2=
EXTT3=
EXTT4=
EXTT5=
EXTT6=
EXTT7=
EXTT8=
EXTT9=
EXTT10=
EXTT11=
EXTT12=
EXTT13=
EXTT14=
EXTT15=
EXTT16=
EXTT17=
EXTT18=
EXTT19=
EXTT20=
EXTT21=
EXTT22=
EXTT23=
EXTT24=
EXTT25=
EXTT26=
EXTT27=
PLAYORDER=
